<mxfile host="app.diagrams.net" agent="Mozilla/5.0 (Windows NT 10.0; Win64; x64) AppleWebKit/537.36 (KHTML, like Gecko) Chrome/131.0.0.0 Safari/537.36" version="25.0.3">
  <diagram name="Page-1" id="1jy7wBRaavq9tMdBv6I-">
    <mxGraphModel dx="1434" dy="746" grid="1" gridSize="10" guides="1" tooltips="1" connect="1" arrows="1" fold="1" page="1" pageScale="1" pageWidth="850" pageHeight="1100" math="0" shadow="0">
      <root>
        <mxCell id="0" />
        <mxCell id="1" parent="0" />
        <mxCell id="QprDGljD75HHbTXDzGDm-14" style="edgeStyle=orthogonalEdgeStyle;rounded=0;orthogonalLoop=1;jettySize=auto;html=1;entryX=0.5;entryY=0;entryDx=0;entryDy=0;" edge="1" parent="1" source="QprDGljD75HHbTXDzGDm-1" target="QprDGljD75HHbTXDzGDm-3">
          <mxGeometry relative="1" as="geometry" />
        </mxCell>
        <mxCell id="QprDGljD75HHbTXDzGDm-1" value="&lt;font style=&quot;font-size: 24px;&quot;&gt;start&lt;/font&gt;" style="strokeWidth=2;html=1;shape=mxgraph.flowchart.start_1;whiteSpace=wrap;" vertex="1" parent="1">
          <mxGeometry x="375" y="40" width="100" height="60" as="geometry" />
        </mxCell>
        <mxCell id="QprDGljD75HHbTXDzGDm-2" value="&lt;font style=&quot;font-size: 24px;&quot;&gt;end&lt;/font&gt;" style="strokeWidth=2;html=1;shape=mxgraph.flowchart.start_1;whiteSpace=wrap;" vertex="1" parent="1">
          <mxGeometry x="375" y="770" width="100" height="60" as="geometry" />
        </mxCell>
        <mxCell id="QprDGljD75HHbTXDzGDm-13" style="edgeStyle=orthogonalEdgeStyle;rounded=0;orthogonalLoop=1;jettySize=auto;html=1;entryX=0.5;entryY=0;entryDx=0;entryDy=0;" edge="1" parent="1" source="QprDGljD75HHbTXDzGDm-3" target="QprDGljD75HHbTXDzGDm-4">
          <mxGeometry relative="1" as="geometry" />
        </mxCell>
        <mxCell id="QprDGljD75HHbTXDzGDm-3" value="b = 3, condition = 0" style="rounded=1;whiteSpace=wrap;html=1;absoluteArcSize=1;arcSize=14;strokeWidth=2;" vertex="1" parent="1">
          <mxGeometry x="363" y="140" width="125" height="70" as="geometry" />
        </mxCell>
        <mxCell id="QprDGljD75HHbTXDzGDm-6" style="edgeStyle=orthogonalEdgeStyle;rounded=0;orthogonalLoop=1;jettySize=auto;html=1;entryX=0.5;entryY=0;entryDx=0;entryDy=0;" edge="1" parent="1" source="QprDGljD75HHbTXDzGDm-4" target="QprDGljD75HHbTXDzGDm-5">
          <mxGeometry relative="1" as="geometry" />
        </mxCell>
        <mxCell id="QprDGljD75HHbTXDzGDm-9" style="edgeStyle=orthogonalEdgeStyle;rounded=0;orthogonalLoop=1;jettySize=auto;html=1;entryX=0.5;entryY=0;entryDx=0;entryDy=0;" edge="1" parent="1" source="QprDGljD75HHbTXDzGDm-4" target="QprDGljD75HHbTXDzGDm-8">
          <mxGeometry relative="1" as="geometry" />
        </mxCell>
        <mxCell id="QprDGljD75HHbTXDzGDm-20" style="edgeStyle=orthogonalEdgeStyle;rounded=0;orthogonalLoop=1;jettySize=auto;html=1;entryX=0.5;entryY=0;entryDx=0;entryDy=0;" edge="1" parent="1" source="QprDGljD75HHbTXDzGDm-4" target="QprDGljD75HHbTXDzGDm-15">
          <mxGeometry relative="1" as="geometry" />
        </mxCell>
        <mxCell id="QprDGljD75HHbTXDzGDm-4" value="if (condition != 0)" style="rhombus;whiteSpace=wrap;html=1;" vertex="1" parent="1">
          <mxGeometry x="352" y="280" width="146" height="90" as="geometry" />
        </mxCell>
        <mxCell id="QprDGljD75HHbTXDzGDm-32" style="edgeStyle=orthogonalEdgeStyle;rounded=0;orthogonalLoop=1;jettySize=auto;html=1;entryX=0;entryY=0.5;entryDx=0;entryDy=0;" edge="1" parent="1" source="QprDGljD75HHbTXDzGDm-5" target="QprDGljD75HHbTXDzGDm-15">
          <mxGeometry relative="1" as="geometry" />
        </mxCell>
        <mxCell id="QprDGljD75HHbTXDzGDm-5" value="output&lt;br&gt;&quot;ok&quot;" style="shape=parallelogram;perimeter=parallelogramPerimeter;whiteSpace=wrap;html=1;fixedSize=1;" vertex="1" parent="1">
          <mxGeometry x="180" y="485" width="139" height="40" as="geometry" />
        </mxCell>
        <mxCell id="QprDGljD75HHbTXDzGDm-11" style="edgeStyle=orthogonalEdgeStyle;rounded=0;orthogonalLoop=1;jettySize=auto;html=1;entryX=0.5;entryY=0;entryDx=0;entryDy=0;" edge="1" parent="1" source="QprDGljD75HHbTXDzGDm-8" target="QprDGljD75HHbTXDzGDm-10">
          <mxGeometry relative="1" as="geometry" />
        </mxCell>
        <mxCell id="QprDGljD75HHbTXDzGDm-30" style="edgeStyle=orthogonalEdgeStyle;rounded=0;orthogonalLoop=1;jettySize=auto;html=1;entryX=1;entryY=1;entryDx=0;entryDy=0;" edge="1" parent="1" source="QprDGljD75HHbTXDzGDm-8" target="QprDGljD75HHbTXDzGDm-4">
          <mxGeometry relative="1" as="geometry" />
        </mxCell>
        <mxCell id="QprDGljD75HHbTXDzGDm-8" value="while ( i &amp;lt;= 5)" style="rhombus;whiteSpace=wrap;html=1;" vertex="1" parent="1">
          <mxGeometry x="560" y="380" width="130" height="60" as="geometry" />
        </mxCell>
        <mxCell id="QprDGljD75HHbTXDzGDm-12" style="edgeStyle=orthogonalEdgeStyle;rounded=0;orthogonalLoop=1;jettySize=auto;html=1;entryX=1;entryY=1;entryDx=0;entryDy=0;" edge="1" parent="1" source="QprDGljD75HHbTXDzGDm-10" target="QprDGljD75HHbTXDzGDm-8">
          <mxGeometry relative="1" as="geometry" />
        </mxCell>
        <mxCell id="QprDGljD75HHbTXDzGDm-10" value="output&lt;br&gt;&quot;not-okey-&quot;, i++" style="shape=parallelogram;perimeter=parallelogramPerimeter;whiteSpace=wrap;html=1;fixedSize=1;" vertex="1" parent="1">
          <mxGeometry x="711" y="460" width="139" height="40" as="geometry" />
        </mxCell>
        <mxCell id="QprDGljD75HHbTXDzGDm-19" style="edgeStyle=orthogonalEdgeStyle;rounded=0;orthogonalLoop=1;jettySize=auto;html=1;" edge="1" parent="1" source="QprDGljD75HHbTXDzGDm-15" target="QprDGljD75HHbTXDzGDm-16">
          <mxGeometry relative="1" as="geometry" />
        </mxCell>
        <mxCell id="QprDGljD75HHbTXDzGDm-25" style="edgeStyle=orthogonalEdgeStyle;rounded=0;orthogonalLoop=1;jettySize=auto;html=1;entryX=0.5;entryY=0;entryDx=0;entryDy=0;" edge="1" parent="1" source="QprDGljD75HHbTXDzGDm-15" target="QprDGljD75HHbTXDzGDm-24">
          <mxGeometry relative="1" as="geometry" />
        </mxCell>
        <mxCell id="QprDGljD75HHbTXDzGDm-15" value="for ( i = 3, i &amp;lt; 10, i ++ )" style="rhombus;whiteSpace=wrap;html=1;" vertex="1" parent="1">
          <mxGeometry x="352" y="460" width="146" height="90" as="geometry" />
        </mxCell>
        <mxCell id="QprDGljD75HHbTXDzGDm-18" style="edgeStyle=orthogonalEdgeStyle;rounded=0;orthogonalLoop=1;jettySize=auto;html=1;entryX=0.5;entryY=0;entryDx=0;entryDy=0;" edge="1" parent="1" source="QprDGljD75HHbTXDzGDm-16" target="QprDGljD75HHbTXDzGDm-17">
          <mxGeometry relative="1" as="geometry" />
        </mxCell>
        <mxCell id="QprDGljD75HHbTXDzGDm-28" style="edgeStyle=orthogonalEdgeStyle;rounded=0;orthogonalLoop=1;jettySize=auto;html=1;entryX=1;entryY=1;entryDx=0;entryDy=0;" edge="1" parent="1" source="QprDGljD75HHbTXDzGDm-16" target="QprDGljD75HHbTXDzGDm-15">
          <mxGeometry relative="1" as="geometry" />
        </mxCell>
        <mxCell id="QprDGljD75HHbTXDzGDm-16" value="if ( i % 2&amp;nbsp; == (condition ? 1: 2))" style="rhombus;whiteSpace=wrap;html=1;" vertex="1" parent="1">
          <mxGeometry x="540" y="560" width="190" height="120" as="geometry" />
        </mxCell>
        <mxCell id="QprDGljD75HHbTXDzGDm-27" style="edgeStyle=orthogonalEdgeStyle;rounded=0;orthogonalLoop=1;jettySize=auto;html=1;entryX=1;entryY=1;entryDx=0;entryDy=0;" edge="1" parent="1" source="QprDGljD75HHbTXDzGDm-17" target="QprDGljD75HHbTXDzGDm-16">
          <mxGeometry relative="1" as="geometry" />
        </mxCell>
        <mxCell id="QprDGljD75HHbTXDzGDm-17" value="output&lt;br&gt;&quot;see see&quot;" style="shape=parallelogram;perimeter=parallelogramPerimeter;whiteSpace=wrap;html=1;fixedSize=1;" vertex="1" parent="1">
          <mxGeometry x="750" y="690" width="139" height="40" as="geometry" />
        </mxCell>
        <mxCell id="QprDGljD75HHbTXDzGDm-24" value="output&lt;br&gt;&quot;haha&quot;" style="shape=parallelogram;perimeter=parallelogramPerimeter;whiteSpace=wrap;html=1;fixedSize=1;" vertex="1" parent="1">
          <mxGeometry x="355.5" y="650" width="139" height="40" as="geometry" />
        </mxCell>
        <mxCell id="QprDGljD75HHbTXDzGDm-26" style="edgeStyle=orthogonalEdgeStyle;rounded=0;orthogonalLoop=1;jettySize=auto;html=1;entryX=0.5;entryY=0;entryDx=0;entryDy=0;entryPerimeter=0;" edge="1" parent="1" source="QprDGljD75HHbTXDzGDm-24" target="QprDGljD75HHbTXDzGDm-2">
          <mxGeometry relative="1" as="geometry" />
        </mxCell>
      </root>
    </mxGraphModel>
  </diagram>
</mxfile>
